<?xml version="1.0" standalone="no"?>
<!DOCTYPE svg PUBLIC "-//W3C//DTD SVG 20010904//EN"
 "http://www.w3.org/TR/2001/REC-SVG-20010904/DTD/svg10.dtd">
<svg version="1.0" xmlns="http://www.w3.org/2000/svg"
 width="645.000000pt" height="1042.000000pt" viewBox="0 0 645.000000 1042.000000"
 preserveAspectRatio="xMidYMid meet">

<g transform="translate(0.000000,1042.000000) scale(0.100000,-0.100000)"
fill="#000000" stroke="none">
<path d="M5620 10036 c-122 -131 -275 -229 -424 -271 -216 -62 -665 -287 -880
-441 -49 -35 -94 -64 -101 -64 -7 0 -64 24 -126 54 -191 90 -400 153 -601 181
-131 18 -403 21 -534 5 -210 -25 -442 -92 -641 -186 -65 -30 -125 -53 -133
-51 -8 2 -60 36 -115 74 -205 144 -655 367 -867 430 -74 21 -223 97 -284 144
-28 21 -79 68 -113 104 -66 69 -97 81 -106 42 -4 -13 -5 -187 -3 -387 l3 -365
26 -55 c52 -110 133 -163 319 -210 114 -29 343 -114 546 -203 200 -88 532
-274 724 -405 310 -211 658 -519 805 -712 31 -41 63 -78 70 -82 16 -10 32 4
100 87 126 154 379 392 575 541 292 224 696 466 945 569 291 120 451 179 557
206 66 16 143 41 170 55 90 46 154 129 165 215 3 22 8 39 12 39 3 0 6 159 6
352 0 340 -1 354 -20 373 l-20 20 -55 -59z"/>
<path d="M1443 8569 c-209 -225 -293 -545 -219 -834 43 -166 105 -279 219
-401 78 -84 161 -143 278 -198 131 -61 215 -79 384 -81 l140 -1 473 -308 c286
-186 479 -306 487 -302 9 3 52 30 98 59 265 173 561 367 692 452 l150 99 150
1 c167 2 242 15 356 66 114 49 183 95 268 175 294 276 369 699 189 1059 -37
73 -117 183 -163 224 l-35 30 -82 -35 c-46 -20 -89 -38 -95 -41 -27 -11 -11
-48 47 -110 152 -162 214 -418 151 -623 -58 -190 -174 -331 -341 -414 -204
-100 -396 -101 -600 -3 -121 59 -230 167 -292 292 -24 50 -47 100 -50 113 -15
55 -53 14 -215 -228 -107 -161 -195 -311 -212 -363 -17 -49 -29 -55 -42 -18
-22 62 -89 191 -149 287 -92 146 -242 344 -261 344 -11 0 -24 -20 -38 -57
-100 -264 -353 -443 -626 -443 -281 0 -538 183 -630 448 -36 104 -45 257 -20
366 24 109 83 220 160 304 36 38 65 75 65 81 0 13 -17 22 -120 66 l-80 34 -37
-40z"/>
<path d="M1864 8381 c-106 -78 -174 -221 -174 -365 0 -132 47 -245 139 -336
185 -183 475 -183 660 -1 58 58 118 162 128 224 5 32 2 35 -109 118 -131 98
-325 225 -465 305 -54 30 -107 62 -119 69 -18 14 -24 12 -60 -14z"/>
<path d="M4344 8322 c-191 -111 -337 -207 -443 -291 -46 -36 -93 -73 -104 -82
-19 -15 -20 -19 -8 -60 68 -230 293 -377 521 -342 253 39 438 286 399 533 -19
121 -104 264 -186 312 l-29 17 -150 -87z"/>
<path d="M1142 7191 c-125 -129 -193 -224 -271 -379 -110 -220 -181 -552 -181
-845 0 -387 122 -972 296 -1417 187 -478 342 -799 556 -1148 439 -715 884
-1280 1455 -1846 l182 -181 11 -120 c17 -180 66 -458 115 -655 50 -198 150
-511 168 -522 18 -11 31 6 93 110 318 541 413 710 517 917 199 398 286 588
432 945 66 161 175 467 175 490 0 13 -10 24 -26 30 -33 13 -290 197 -459 330
-379 297 -708 662 -1010 1120 -186 281 -334 620 -403 920 -41 176 -55 309 -53
508 3 305 64 520 218 769 35 57 63 109 63 117 0 8 -24 28 -52 44 -29 16 -125
73 -213 127 -88 54 -200 123 -250 153 -169 103 -270 165 -345 212 -71 44 -82
47 -182 59 -140 16 -232 42 -353 101 -113 54 -214 126 -296 212 -31 32 -63 57
-70 56 -8 0 -60 -49 -117 -107z"/>
<path d="M5079 7254 c-68 -71 -196 -166 -290 -214 -118 -61 -235 -95 -375
-111 l-107 -12 -106 -67 c-58 -36 -151 -94 -206 -127 -55 -33 -149 -91 -210
-128 -60 -37 -141 -87 -180 -110 -38 -23 -131 -80 -205 -125 -74 -46 -154 -94
-176 -107 -39 -22 -45 -32 -97 -161 -66 -161 -101 -309 -120 -509 -43 -433
112 -979 423 -1495 298 -490 773 -985 1285 -1338 162 -111 509 -320 532 -320
29 0 24 34 -15 118 -54 115 -87 225 -113 374 -19 114 -20 148 -16 473 6 401
13 459 107 840 57 232 102 373 214 667 198 525 268 1063 196 1512 -53 329
-202 626 -403 803 -45 40 -87 73 -93 73 -5 0 -26 -16 -45 -36z"/>
</g>
</svg>
