<?xml version="1.0" standalone="no"?>
<!DOCTYPE svg PUBLIC "-//W3C//DTD SVG 20010904//EN"
 "http://www.w3.org/TR/2001/REC-SVG-20010904/DTD/svg10.dtd">
<svg version="1.0" xmlns="http://www.w3.org/2000/svg"
 width="2538.000000pt" height="1042.000000pt" viewBox="0 0 2538.000000 1042.000000"
 preserveAspectRatio="xMidYMid meet">

<g transform="translate(0.000000,1042.000000) scale(0.100000,-0.100000)"
fill="#000000" stroke="none">
<path d="M5346 9719 c-104 -107 -252 -197 -376 -229 -25 -6 -58 -17 -75 -25
-16 -7 -65 -27 -107 -44 -173 -69 -455 -220 -600 -322 -53 -38 -102 -69 -108
-69 -6 0 -45 17 -88 39 -511 256 -1163 256 -1674 0 -43 -22 -82 -39 -88 -39
-6 0 -55 31 -108 69 -182 128 -570 320 -811 401 -140 47 -303 153 -374 245
-20 25 -35 35 -50 33 l-22 -3 0 -355 c0 -396 -1 -391 72 -471 48 -53 125 -90
243 -119 150 -36 498 -176 680 -273 385 -205 600 -350 885 -598 123 -107 285
-273 349 -356 26 -35 51 -63 56 -63 4 0 37 35 73 78 36 42 136 147 223 232
273 267 577 483 1004 713 127 68 545 233 667 263 179 45 259 96 303 197 20 46
21 63 21 395 -1 191 -1 350 -1 353 0 4 -6 9 -13 12 -8 3 -43 -25 -81 -64z"/>
<path d="M12330 9687 c-77 -18 -130 -20 -547 -24 -270 -3 -463 -9 -463 -14 0
-5 14 -9 30 -9 36 0 96 -23 124 -48 10 -9 27 -35 37 -57 17 -38 19 -84 19
-800 0 -467 -4 -773 -10 -794 -19 -67 -90 -121 -160 -121 -29 0 -40 -4 -40
-15 0 -13 66 -15 557 -13 l558 3 72 200 c40 110 72 206 73 213 1 29 -17 7 -54
-65 -53 -101 -138 -192 -214 -226 -82 -37 -165 -47 -404 -47 l-208 0 0 400 0
400 245 0 c200 0 251 -3 275 -15 36 -19 52 -47 60 -104 3 -25 11 -46 18 -49 9
-3 12 43 12 207 0 181 -2 211 -15 211 -11 0 -15 -11 -15 -35 0 -46 -21 -87
-57 -111 -25 -17 -52 -19 -275 -22 l-248 -3 0 415 0 416 294 0 c287 0 294 0
326 -22 50 -34 72 -71 78 -127 2 -28 8 -51 13 -51 5 0 9 74 9 165 0 91 -1 164
-2 164 -2 -1 -41 -11 -88 -22z"/>
<path d="M22170 9687 c-77 -18 -130 -20 -547 -24 -270 -3 -463 -9 -463 -14 0
-5 15 -9 33 -9 53 -1 113 -34 144 -81 l28 -43 3 -740 c2 -408 0 -764 -3 -793
-11 -93 -80 -163 -161 -163 -33 0 -44 -4 -44 -15 0 -13 66 -15 556 -13 l556 3
74 205 c40 113 74 208 74 213 0 4 -4 7 -10 7 -5 0 -23 -27 -39 -60 -87 -175
-188 -257 -346 -280 -39 -5 -163 -10 -277 -10 l-208 0 0 400 0 400 251 0 251
0 39 -39 c34 -34 39 -45 39 -85 0 -34 4 -46 15 -46 13 0 15 30 15 210 0 180
-2 210 -15 210 -11 0 -15 -11 -15 -36 0 -50 -27 -91 -75 -114 -38 -18 -63 -20
-273 -20 l-232 0 0 415 0 415 290 0 c322 0 327 -1 375 -64 16 -21 28 -52 32
-85 12 -102 23 -47 23 114 0 91 -1 164 -2 164 -2 -1 -41 -11 -88 -22z"/>
<path d="M6953 9693 c-10 -4 -13 -919 -13 -4529 l0 -4525 138 3 137 3 3 4521
2 4522 -22 6 c-27 7 -228 7 -245 -1z"/>
<path d="M9631 8948 c-134 -414 -247 -757 -251 -761 -8 -9 -421 1307 -420
1341 0 57 56 112 115 112 14 0 25 5 25 10 0 6 -107 10 -300 10 -165 0 -300 -3
-300 -8 0 -4 27 -13 61 -19 69 -13 125 -46 164 -97 18 -24 129 -324 335 -903
169 -477 312 -869 318 -871 6 -2 13 18 17 45 3 26 16 93 29 148 30 128 428
1328 437 1318 3 -5 127 -347 275 -760 148 -414 274 -753 280 -753 6 0 14 27
18 61 3 33 13 88 22 122 38 152 479 1536 500 1574 33 57 101 102 175 116 32 7
59 15 59 19 0 5 -119 8 -265 8 -170 0 -265 -4 -265 -10 0 -5 11 -10 25 -10 65
0 124 -69 111 -129 -14 -60 -360 -1267 -365 -1273 -3 -4 -124 323 -267 725
-165 461 -267 733 -276 735 -10 2 -78 -195 -257 -750z"/>
<path d="M15155 9686 c-374 -59 -649 -306 -746 -674 -27 -99 -37 -344 -19
-463 45 -311 217 -555 485 -689 164 -83 355 -117 558 -99 228 19 393 95 538
245 114 119 113 118 131 354 9 113 14 207 11 210 -8 8 -23 -25 -23 -51 0 -49
-50 -223 -84 -294 -92 -192 -235 -308 -451 -366 -112 -30 -299 -30 -408 -1
-173 47 -313 149 -415 301 -106 159 -152 330 -152 571 0 301 78 520 244 685
135 133 278 193 481 202 158 7 257 -11 382 -72 149 -73 245 -177 304 -329 15
-39 33 -72 39 -74 8 -3 10 3 7 14 -3 11 -15 93 -28 184 -15 114 -27 170 -38
182 -28 29 -143 86 -238 118 -170 56 -394 74 -578 46z"/>
<path d="M17208 9686 c-451 -80 -742 -419 -765 -892 -32 -657 413 -1089 1065
-1033 282 24 512 145 668 352 248 329 254 885 12 1212 -127 172 -300 288 -507
342 -120 31 -352 40 -473 19z m427 -99 c247 -80 416 -275 492 -565 50 -197 41
-479 -23 -671 -75 -227 -249 -409 -461 -482 -190 -65 -450 -39 -620 63 -117
69 -238 215 -298 357 -110 263 -106 647 11 899 88 191 246 340 420 396 92 30
137 35 269 32 107 -3 144 -8 210 -29z"/>
<path d="M18975 9668 c-3 -18 -48 -402 -100 -853 -52 -451 -100 -837 -105
-858 -13 -47 -64 -106 -107 -123 -18 -8 -53 -14 -78 -14 -33 0 -45 -4 -45 -15
0 -13 36 -15 260 -15 143 0 260 4 260 9 0 4 -19 11 -42 14 -33 4 -51 15 -77
43 -31 34 -33 40 -28 88 3 28 29 321 57 651 29 330 55 608 58 617 5 11 120
-227 347 -719 187 -405 345 -738 352 -740 7 -3 15 8 18 24 4 15 17 61 31 102
26 82 617 1398 621 1385 1 -5 30 -313 63 -684 59 -647 61 -676 44 -707 -18
-35 -67 -63 -108 -63 -14 0 -26 -4 -26 -10 0 -6 103 -10 290 -10 240 0 290 2
290 14 0 10 -18 15 -60 18 -48 3 -67 10 -97 35 -21 16 -46 44 -55 60 -14 23
-42 231 -123 900 -58 479 -105 874 -105 877 0 49 -82 -120 -390 -799 -200
-442 -367 -801 -371 -797 -3 4 -172 366 -375 804 -203 439 -374 798 -381 798
-7 0 -15 -15 -18 -32z"/>
<path d="M12870 9651 c0 -5 23 -11 50 -15 36 -5 60 -16 86 -38 68 -60 64 -6
64 -868 0 -704 -2 -785 -16 -817 -25 -50 -76 -85 -134 -91 -33 -3 -50 -9 -50
-18 0 -12 91 -14 555 -14 305 0 555 2 555 4 0 2 34 97 75 212 41 115 75 210
75 211 0 2 -6 3 -12 2 -7 0 -31 -37 -53 -82 -52 -107 -138 -195 -218 -225 -89
-34 -167 -42 -390 -42 l-207 0 2 833 3 832 24 34 c27 38 91 70 139 71 17 0 32
5 32 10 0 6 -103 10 -290 10 -159 0 -290 -4 -290 -9z"/>
<path d="M22710 9651 c0 -5 21 -11 48 -15 26 -3 64 -17 83 -30 72 -49 69 -5
69 -872 0 -757 -1 -779 -20 -819 -26 -55 -71 -86 -133 -94 -28 -3 -52 -12 -55
-19 -3 -11 91 -13 539 -9 507 4 550 5 630 25 175 42 309 113 430 229 118 113
185 223 236 389 25 84 27 100 27 289 0 176 -3 209 -22 279 -78 279 -271 491
-542 592 -159 60 -205 64 -776 64 -285 0 -514 -4 -514 -9z m1085 -86 c39 -8
113 -36 165 -61 202 -100 346 -302 395 -555 23 -119 21 -337 -4 -456 -51 -245
-197 -446 -392 -542 -147 -72 -163 -74 -541 -79 l-338 -4 0 856 0 856 323 0
c243 0 339 -4 392 -15z"/>
<path d="M1508 8353 c-149 -188 -213 -427 -174 -651 41 -234 161 -421 355
-550 148 -100 333 -150 499 -138 l83 6 440 -286 439 -286 440 286 441 287 87
-7 c280 -20 570 123 727 361 103 155 139 276 138 465 0 106 -4 139 -27 215
-15 50 -45 124 -68 165 -48 91 -144 210 -167 210 -32 0 -176 -68 -179 -85 -2
-9 23 -44 56 -80 133 -142 187 -338 147 -530 -52 -242 -248 -434 -489 -476
-188 -32 -379 25 -526 157 -46 42 -118 149 -144 214 -25 63 -31 73 -44 78 -27
9 -335 -462 -373 -570 -13 -37 -29 -51 -29 -25 0 24 -96 209 -159 307 -85 131
-210 292 -223 288 -14 -5 -20 -17 -47 -88 -29 -75 -108 -180 -178 -235 -124
-98 -258 -141 -413 -132 -261 15 -481 188 -554 436 -58 198 -5 426 135 576 34
36 59 71 57 80 -3 16 -144 85 -173 85 -8 0 -43 -35 -77 -77z"/>
<path d="M1904 8202 c-174 -171 -176 -441 -5 -613 131 -130 316 -163 485 -86
62 29 146 102 183 161 19 30 63 136 63 151 0 2 -51 40 -112 87 -118 87 -295
202 -435 283 -46 26 -85 51 -89 56 -12 20 -44 7 -90 -39z"/>
<path d="M4195 8172 c-188 -112 -296 -184 -412 -275 -116 -90 -114 -82 -62
-193 56 -119 183 -213 323 -237 162 -28 335 51 426 194 38 59 70 163 70 229 0
56 -23 147 -51 202 -27 52 -126 158 -148 157 -9 0 -74 -35 -146 -77z"/>
<path d="M1269 7136 c-121 -127 -193 -231 -257 -371 -66 -145 -108 -298 -132
-486 -25 -194 -25 -319 0 -546 35 -319 126 -688 244 -991 222 -572 393 -899
759 -1447 305 -457 722 -956 1113 -1334 l138 -133 13 -132 c25 -265 98 -599
195 -896 47 -147 61 -175 80 -164 8 5 165 267 345 579 233 401 521 1024 688
1485 36 98 65 186 65 194 0 9 -7 16 -15 16 -41 0 -523 370 -713 549 -387 362
-772 918 -922 1326 -106 292 -147 534 -137 807 9 256 68 448 199 657 32 51 58
100 56 107 -2 7 -185 124 -408 260 -223 135 -412 252 -421 260 -8 8 -40 16
-70 19 -145 13 -220 30 -336 78 -90 37 -223 127 -298 202 -36 36 -71 64 -78
64 -6 -1 -55 -47 -108 -103z"/>
<path d="M4874 7199 c-164 -173 -403 -284 -644 -303 -53 -4 -83 -21 -550 -306
-272 -166 -506 -310 -520 -320 -35 -25 -113 -218 -144 -355 -41 -182 -54 -350
-39 -507 62 -652 416 -1300 1038 -1899 240 -231 525 -445 837 -627 208 -122
223 -121 163 6 -47 98 -79 203 -106 350 -20 109 -21 140 -16 437 6 358 15 431
96 750 64 254 83 315 180 575 93 246 133 391 186 660 22 113 27 173 32 370 5
208 3 251 -16 374 -50 324 -182 593 -373 760 -41 36 -80 66 -85 66 -5 0 -22
-14 -39 -31z"/>
<path d="M10340 6142 c-45 -13 -141 -16 -542 -19 -416 -4 -488 -6 -488 -19 0
-9 11 -14 35 -14 48 0 108 -32 137 -72 l23 -33 0 -805 0 -805 -23 -33 c-29
-40 -89 -72 -137 -72 -24 0 -35 -4 -35 -15 0 -13 66 -15 556 -13 l556 3 74
205 c40 113 74 211 74 218 0 29 -18 6 -60 -75 -57 -113 -142 -200 -226 -234
-56 -22 -74 -24 -326 -27 l-268 -3 0 401 0 401 248 -3 c223 -3 250 -5 275 -22
36 -24 57 -65 57 -111 0 -24 4 -35 15 -35 13 0 15 30 15 210 0 171 -3 210 -14
210 -9 0 -15 -17 -18 -52 -5 -44 -11 -57 -42 -85 l-36 -33 -250 0 -250 0 0
410 0 411 304 -3 305 -3 32 -30 c38 -36 59 -82 59 -130 0 -19 5 -35 10 -35 6
0 10 62 10 165 0 91 -3 165 -7 164 -5 -1 -33 -8 -63 -17z"/>
<path d="M11015 6118 c4 -24 9 -419 11 -879 6 -929 9 -881 -61 -934 -26 -21
-51 -30 -91 -33 -37 -3 -54 -9 -54 -18 0 -20 541 -16 548 4 2 8 -11 12 -45 12
-68 0 -122 33 -151 90 l-22 46 2 678 3 679 730 -777 c402 -427 736 -776 744
-776 10 0 11 9 6 38 -4 20 -9 414 -12 874 -4 771 -3 841 13 874 26 54 76 87
140 92 37 3 54 9 54 18 0 12 -48 14 -275 14 -238 0 -275 -2 -275 -15 0 -11 11
-15 40 -15 86 0 163 -63 175 -142 3 -24 5 -336 3 -695 l-3 -652 -734 779
c-403 429 -738 780 -743 780 -6 0 -7 -16 -3 -42z"/>
<path d="M13873 6135 c-195 -35 -356 -118 -488 -250 -183 -183 -265 -402 -265
-707 0 -276 67 -476 220 -654 180 -208 428 -314 740 -314 144 0 259 19 385 64
133 48 226 105 318 196 l77 78 0 241 c0 263 4 286 55 309 14 7 46 12 70 12 33
0 45 4 45 15 0 13 -36 15 -260 15 -224 0 -260 -2 -260 -15 0 -11 12 -15 48
-15 64 0 108 -28 122 -77 7 -24 10 -123 8 -278 l-3 -239 -57 -46 c-71 -57
-198 -121 -298 -150 -106 -31 -319 -39 -423 -16 -294 66 -506 306 -572 650
-21 107 -21 345 -1 451 62 316 235 536 495 629 84 30 90 31 261 31 166 0 179
-2 255 -28 44 -16 104 -42 132 -58 118 -68 223 -193 264 -316 20 -62 39 -82
39 -44 0 18 -33 255 -45 327 -4 26 -16 36 -83 71 -100 54 -234 98 -352 118
-114 18 -327 18 -427 0z"/>
<path d="M18051 6135 c-171 -48 -293 -190 -321 -371 -20 -128 22 -269 107
-361 21 -23 157 -151 303 -286 146 -134 273 -253 282 -263 42 -47 62 -116 63
-209 0 -82 -3 -96 -33 -157 -37 -77 -90 -128 -172 -167 -50 -24 -66 -26 -175
-26 -111 0 -124 2 -170 27 -114 60 -186 177 -193 316 -3 55 -8 82 -17 82 -20
0 -45 -141 -45 -255 0 -101 1 -105 28 -130 104 -98 411 -155 587 -110 215 56
345 233 345 471 0 109 -24 200 -73 268 -17 26 -162 166 -322 312 -159 146
-303 284 -318 307 -88 130 -66 303 52 409 26 24 70 51 97 61 61 21 185 23 243
2 100 -35 170 -115 186 -212 14 -89 25 -38 25 121 l0 164 -92 6 c-230 16 -332
16 -387 1z"/>
<path d="M15267 6113 c-15 -15 -5 -23 27 -23 71 0 125 -36 157 -105 18 -38 19
-82 19 -805 0 -723 -1 -767 -19 -805 -32 -69 -86 -105 -157 -105 -24 0 -34 -5
-34 -15 0 -13 68 -15 556 -15 l555 0 14 34 c16 38 145 396 145 402 0 2 -4 4
-9 4 -6 0 -29 -37 -53 -82 -57 -111 -150 -207 -233 -239 -57 -22 -74 -24 -327
-27 l-268 -3 0 808 c0 764 1 810 19 848 32 69 86 105 157 105 24 0 34 5 34 15
0 13 -39 15 -288 15 -159 0 -292 -3 -295 -7z"/>
<path d="M16780 6105 c0 -10 10 -15 32 -15 53 0 115 -37 143 -84 l25 -43 0
-782 c0 -851 3 -807 -57 -863 -33 -31 -72 -48 -114 -48 -19 0 -29 -5 -29 -15
0 -13 39 -15 290 -15 251 0 290 2 290 15 0 11 -11 15 -37 15 -44 0 -108 34
-136 71 -10 15 -23 46 -28 70 -11 57 -11 1480 0 1538 5 24 18 55 28 70 28 37
92 71 136 71 26 0 37 4 37 15 0 13 -39 15 -290 15 -251 0 -290 -2 -290 -15z"/>
<path d="M18960 6105 c0 -11 11 -15 35 -15 48 0 108 -32 137 -72 l23 -33 0
-805 0 -805 -23 -33 c-29 -40 -89 -72 -137 -72 -24 0 -35 -4 -35 -15 0 -13 39
-15 290 -15 251 0 290 2 290 15 0 10 -10 15 -32 15 -48 1 -112 33 -139 71
l-24 34 -3 378 -3 377 551 0 550 0 0 -352 c0 -201 -4 -368 -10 -388 -18 -66
-93 -120 -166 -120 -24 0 -34 -5 -34 -15 0 -13 39 -15 295 -15 256 0 295 2
295 15 0 10 -10 15 -34 15 -71 0 -125 36 -157 105 -18 38 -19 82 -19 805 0
723 1 767 19 805 32 69 86 105 157 105 24 0 34 5 34 15 0 13 -39 15 -295 15
-256 0 -295 -2 -295 -15 0 -10 10 -15 34 -15 46 0 85 -16 120 -48 55 -52 56
-59 56 -462 l0 -370 -550 0 -550 0 0 378 c0 372 1 378 23 416 26 46 93 86 144
86 23 0 33 5 33 15 0 13 -39 15 -290 15 -251 0 -290 -2 -290 -15z"/>
<path d="M11900 2602 c-45 -13 -140 -16 -537 -19 -412 -4 -483 -6 -483 -19 0
-9 11 -14 35 -14 76 0 144 -53 165 -128 14 -53 14 -1503 -1 -1557 -6 -22 -20
-53 -32 -69 -24 -34 -89 -65 -134 -66 -18 0 -33 -5 -33 -10 0 -7 187 -9 557
-8 l557 3 72 200 c40 110 73 206 73 213 2 28 -16 7 -51 -61 -80 -154 -178
-240 -305 -266 -32 -6 -157 -11 -290 -11 l-233 0 0 400 0 400 236 0 c200 0
241 -3 271 -17 44 -21 73 -66 73 -115 0 -27 4 -38 15 -38 13 0 15 30 15 210 0
180 -2 210 -15 210 -11 0 -15 -11 -15 -39 0 -44 -33 -99 -70 -118 -18 -9 -94
-13 -267 -13 l-243 0 0 415 0 415 268 0 c147 0 284 -5 306 -9 71 -17 126 -92
126 -173 0 -16 5 -28 10 -28 6 0 10 62 10 165 0 126 -3 165 -12 164 -7 -1 -38
-8 -68 -17z"/>
<path d="M14394 2596 c3 -13 10 -86 16 -162 12 -172 13 -1525 1 -1578 -17 -72
-90 -126 -171 -126 -22 0 -40 -4 -40 -10 0 -6 98 -10 275 -10 151 0 275 4 275
9 0 5 -24 11 -54 13 -39 3 -65 12 -90 32 -70 53 -66 11 -64 770 l3 684 725
-773 c399 -426 731 -774 739 -775 10 0 11 10 6 43 -4 23 -9 417 -11 874 -5
768 -4 836 12 868 26 55 75 88 140 93 37 3 54 9 54 18 0 12 -48 14 -275 14
-227 0 -275 -2 -275 -14 0 -9 18 -15 59 -18 44 -3 68 -11 94 -31 69 -53 68
-34 65 -783 l-3 -670 -730 778 c-401 428 -736 778 -744 778 -9 0 -11 -7 -7
-24z"/>
<path d="M17270 2588 c0 -28 -13 -60 -399 -976 -267 -630 -320 -749 -355 -789
-44 -51 -123 -93 -173 -93 -18 0 -33 -4 -33 -10 0 -6 97 -10 270 -10 173 0
270 4 270 10 0 6 -11 10 -24 10 -62 0 -116 52 -116 112 0 15 34 114 76 220 42
106 85 217 96 246 l19 52 360 0 360 0 18 -42 c49 -117 164 -434 168 -466 8
-66 -44 -122 -113 -122 -13 0 -24 -4 -24 -10 0 -6 107 -10 300 -10 279 0 368
8 252 24 -57 7 -129 50 -166 99 -14 19 -190 425 -390 903 -348 831 -396 933
-396 852z m320 -1150 c0 -4 -146 -8 -325 -8 -243 0 -325 3 -325 12 0 10 315
820 328 842 4 8 322 -826 322 -846z"/>
<path d="M9310 2567 c0 -10 15 -16 50 -19 33 -3 61 -14 85 -32 69 -53 65 -1
65 -873 l0 -788 -23 -39 c-26 -46 -93 -86 -144 -86 -18 0 -33 -4 -33 -10 0
-17 770 -13 854 5 196 41 347 165 396 323 25 79 27 213 5 297 -47 181 -197
325 -379 366 l-55 12 57 27 c197 94 283 327 201 545 -44 119 -184 224 -344
261 -103 24 -735 33 -735 11z m701 -105 c79 -31 132 -81 171 -160 32 -64 33
-72 33 -182 0 -87 -5 -128 -19 -169 -22 -63 -88 -139 -152 -177 -46 -27 -155
-54 -221 -54 -43 0 -57 -13 -27 -24 9 -3 40 -6 70 -6 133 0 310 -61 391 -134
49 -44 97 -132 113 -207 8 -35 11 -98 8 -161 -4 -90 -9 -114 -35 -169 -52
-110 -145 -181 -271 -208 -29 -6 -127 -11 -217 -11 l-165 0 0 846 0 846 133
-4 c105 -3 143 -9 188 -26z"/>
<path d="M12427 2573 c-15 -15 -5 -23 27 -23 46 0 85 -16 120 -48 58 -55 56
-24 56 -861 0 -520 -3 -779 -11 -798 -24 -64 -95 -113 -164 -113 -19 0 -35 -4
-35 -10 0 -6 105 -10 295 -10 190 0 295 4 295 10 0 6 -17 10 -37 10 -50 0
-100 27 -137 73 l-31 39 0 826 0 827 82 3 c45 1 138 -1 206 -6 143 -11 194
-29 257 -92 117 -117 156 -366 82 -524 -74 -157 -185 -218 -428 -232 -114 -7
-141 -16 -82 -28 53 -10 115 -54 166 -115 27 -31 127 -169 223 -306 246 -351
292 -397 462 -456 73 -26 95 -29 210 -29 129 0 169 12 76 23 -86 10 -172 58
-261 145 -97 93 -145 153 -311 383 -73 102 -154 202 -192 238 -69 64 -69 65 0
75 111 16 252 131 314 258 91 184 75 416 -38 562 -76 98 -188 157 -334 176
-82 11 -800 14 -810 3z"/>
<path d="M18407 2573 c-16 -15 -4 -23 33 -23 66 0 135 -49 159 -113 8 -19 11
-278 11 -797 0 -519 -3 -778 -11 -797 -24 -64 -95 -113 -164 -113 -19 0 -35
-4 -35 -10 0 -7 193 -10 560 -10 308 0 560 2 560 4 0 2 34 97 75 212 41 115
75 210 75 211 0 2 -4 3 -9 3 -6 0 -29 -37 -53 -82 -56 -110 -149 -205 -233
-239 -57 -22 -74 -24 -327 -27 l-268 -3 0 808 c0 764 1 810 19 848 32 69 86
105 157 105 24 0 34 5 34 15 0 13 -39 15 -288 15 -159 0 -292 -3 -295 -7z"/>
</g>
</svg>
